# xmcd
#
# Track frame offsets: 
#        150
#        4563
#        19896
#        32662
#        50564
#        56471
#        66354
#        88279
#        93513
#        109273
#        135624
#        140830
#        174228
#        196275
#        236264
#        241617
#        272309
#
# Disc length: 4050 seconds
#
# Revision: 3
# Processed by: cddbd v1.5.2PL0 Copyright (c) Steve Scherf et al.
# Submitted via: ExactAudioCopy v0.95a5
#
DISCID=e00fd011
DTITLE=Various Artist - 天地
DYEAR=2003
DGENRE=New Age
TTITLE0=朝露 (自然声音)
TTITLE1=庄子鼓盆 音乐：天地
TTITLE2=环中之道 音乐：春天的歌
TTITLE3=黏蝉的老人 音乐：夏夜晚风
TTITLE4=凉沁 (自然声音)
TTITLE5=大地的箫声 音乐：云箫
TTITLE6=大鹏 音乐：流星雨
TTITLE7=梦 (自然声音)
TTITLE8=人之境 音乐：酒狂 
TTITLE9=相忘于江湖 音乐：华灯
TTITLE10=天池 (自然声音)
TTITLE11=自然的生灭 音乐：月落西子湖
TTITLE12=梦蝶 音乐：相遇 
TTITLE13=秋水 音乐：天泉
TTITLE14=自在 (自然声音) 
TTITLE15=天道 音乐：浮生
TTITLE16=庄子说话不说话 音乐：流水
EXTD=
EXTT0=
EXTT1=
EXTT2=
EXTT3=
EXTT4=
EXTT5=
EXTT6=
EXTT7=
EXTT8=
EXTT9=
EXTT10=
EXTT11=
EXTT12=
EXTT13=
EXTT14=
EXTT15=
EXTT16=
PLAYORDER=
